<svg id="visual" viewBox="0 0 9000 1000" width="9000" height="1000" xmlns="http://www.w3.org/2000/svg" xmlns:xlink="http://www.w3.org/1999/xlink" version="1.1"><g stroke-width="1" stroke-linejoin="bevel"><path d="M4506 651.7L4124 1000L4574 1000Z" fill="#101010" stroke="#323232"></path><path d="M4506 651.7L3981 652.7L4124 1000Z" fill="#0d0d0d" stroke="#323232"></path><path d="M4506 651.7L4411 258.3L3981 652.7Z" fill="#101010" stroke="#323232"></path><path d="M4574 1000L4943 1000L4506 651.7Z" fill="#131313" stroke="#323232"></path><path d="M4506 651.7L4923 278.3L4411 258.3Z" fill="#131313" stroke="#323232"></path><path d="M4411 258.3L4005 301.3L3981 652.7Z" fill="#000000" stroke="#323232"></path><path d="M3981 652.7L3675 1000L4124 1000Z" fill="#090909" stroke="#323232"></path><path d="M3558 731.7L3675 1000L3981 652.7Z" fill="#040404" stroke="#323232"></path><path d="M4943 1000L5017 572.7L4506 651.7Z" fill="#0b0b0b" stroke="#323232"></path><path d="M3675 270.3L3558 731.7L3981 652.7Z" fill="#0d0d0d" stroke="#323232"></path><path d="M5017 572.7L4923 278.3L4506 651.7Z" fill="#040404" stroke="#323232"></path><path d="M4923 278.3L4496 0L4411 258.3Z" fill="#040404" stroke="#323232"></path><path d="M4411 258.3L4020 0L4005 301.3Z" fill="#070707" stroke="#323232"></path><path d="M4020 0L3675 270.3L4005 301.3Z" fill="#070707" stroke="#323232"></path><path d="M4005 301.3L3675 270.3L3981 652.7Z" fill="#070707" stroke="#323232"></path><path d="M4496 0L4020 0L4411 258.3Z" fill="#090909" stroke="#323232"></path><path d="M5435 251.3L4912 0L4923 278.3Z" fill="#020202" stroke="#323232"></path><path d="M4923 278.3L4912 0L4496 0Z" fill="#121212" stroke="#323232"></path><path d="M4943 1000L5441 1000L5017 572.7Z" fill="#090909" stroke="#323232"></path><path d="M5017 572.7L5435 251.3L4923 278.3Z" fill="#040404" stroke="#323232"></path><path d="M4020 0L3642 0L3675 270.3Z" fill="#121212" stroke="#323232"></path><path d="M3675 270.3L3222 581.7L3558 731.7Z" fill="#040404" stroke="#323232"></path><path d="M5441 1000L5483 726.7L5017 572.7Z" fill="#0b0b0b" stroke="#323232"></path><path d="M3069 431.3L3222 581.7L3675 270.3Z" fill="#000000" stroke="#323232"></path><path d="M3558 731.7L3110 1000L3675 1000Z" fill="#000000" stroke="#323232"></path><path d="M5483 726.7L5435 251.3L5017 572.7Z" fill="#090909" stroke="#323232"></path><path d="M3222 581.7L3110 1000L3558 731.7Z" fill="#0f0f0f" stroke="#323232"></path><path d="M3089 0L3069 431.3L3675 270.3Z" fill="#020202" stroke="#323232"></path><path d="M3222 581.7L2798 1000L3110 1000Z" fill="#101010" stroke="#323232"></path><path d="M5435 251.3L5451 0L4912 0Z" fill="#0d0d0d" stroke="#323232"></path><path d="M5761 0L5451 0L5435 251.3Z" fill="#0f0f0f" stroke="#323232"></path><path d="M3642 0L3089 0L3675 270.3Z" fill="#0f0f0f" stroke="#323232"></path><path d="M5934 1000L5864 611.7L5483 726.7Z" fill="#040404" stroke="#323232"></path><path d="M5483 726.7L5861 334.3L5435 251.3Z" fill="#0b0b0b" stroke="#323232"></path><path d="M3069 431.3L2798 1000L3222 581.7Z" fill="#121212" stroke="#323232"></path><path d="M2640 600.7L2798 1000L3069 431.3Z" fill="#101010" stroke="#323232"></path><path d="M5441 1000L5934 1000L5483 726.7Z" fill="#0d0d0d" stroke="#323232"></path><path d="M6279 406.3L5861 334.3L5864 611.7Z" fill="#040404" stroke="#323232"></path><path d="M5864 611.7L5861 334.3L5483 726.7Z" fill="#090909" stroke="#323232"></path><path d="M5861 334.3L5761 0L5435 251.3Z" fill="#101010" stroke="#323232"></path><path d="M2712 275.3L2640 600.7L3069 431.3Z" fill="#131313" stroke="#323232"></path><path d="M3089 0L2712 275.3L3069 431.3Z" fill="#040404" stroke="#323232"></path><path d="M3089 0L2702 0L2712 275.3Z" fill="#101010" stroke="#323232"></path><path d="M2160 625.7L2302 1000L2640 600.7Z" fill="#090909" stroke="#323232"></path><path d="M5934 1000L6291 634.7L5864 611.7Z" fill="#0f0f0f" stroke="#323232"></path><path d="M5861 334.3L6315 0L5761 0Z" fill="#121212" stroke="#323232"></path><path d="M6291 634.7L6279 406.3L5864 611.7Z" fill="#121212" stroke="#323232"></path><path d="M5934 1000L6385 1000L6291 634.7Z" fill="#040404" stroke="#323232"></path><path d="M6291 634.7L6792 397.3L6279 406.3Z" fill="#131313" stroke="#323232"></path><path d="M2640 600.7L2302 1000L2798 1000Z" fill="#131313" stroke="#323232"></path><path d="M2160 625.7L2640 600.7L2173 293.3Z" fill="#040404" stroke="#323232"></path><path d="M6792 397.3L6315 0L6279 406.3Z" fill="#0f0f0f" stroke="#323232"></path><path d="M6279 406.3L6315 0L5861 334.3Z" fill="#131313" stroke="#323232"></path><path d="M2702 0L2344 0L2712 275.3Z" fill="#090909" stroke="#323232"></path><path d="M2173 293.3L2640 600.7L2712 275.3Z" fill="#020202" stroke="#323232"></path><path d="M2344 0L2173 293.3L2712 275.3Z" fill="#020202" stroke="#323232"></path><path d="M6385 1000L6715 743.7L6291 634.7Z" fill="#020202" stroke="#323232"></path><path d="M6658 1000L6715 743.7L6385 1000Z" fill="#0b0b0b" stroke="#323232"></path><path d="M2160 625.7L1895 1000L2302 1000Z" fill="#020202" stroke="#323232"></path><path d="M1882 579.7L1895 1000L2160 625.7Z" fill="#070707" stroke="#323232"></path><path d="M1780 253.3L1882 579.7L2173 293.3Z" fill="#000000" stroke="#323232"></path><path d="M2173 293.3L1882 579.7L2160 625.7Z" fill="#000000" stroke="#323232"></path><path d="M6715 743.7L6792 397.3L6291 634.7Z" fill="#0d0d0d" stroke="#323232"></path><path d="M6792 397.3L6775 0L6315 0Z" fill="#040404" stroke="#323232"></path><path d="M1809 0L1780 253.3L2173 293.3Z" fill="#040404" stroke="#323232"></path><path d="M1882 579.7L1312 1000L1895 1000Z" fill="#070707" stroke="#323232"></path><path d="M2344 0L1809 0L2173 293.3Z" fill="#070707" stroke="#323232"></path><path d="M6715 743.7L7109 731.7L6792 397.3Z" fill="#020202" stroke="#323232"></path><path d="M6792 397.3L7190 0L6775 0Z" fill="#0b0b0b" stroke="#323232"></path><path d="M7114 1000L7109 731.7L6715 743.7Z" fill="#0d0d0d" stroke="#323232"></path><path d="M6658 1000L7114 1000L6715 743.7Z" fill="#020202" stroke="#323232"></path><path d="M7584 261.3L7205 423.3L7707 610.7Z" fill="#040404" stroke="#323232"></path><path d="M7109 731.7L7205 423.3L6792 397.3Z" fill="#070707" stroke="#323232"></path><path d="M7205 423.3L7190 0L6792 397.3Z" fill="#020202" stroke="#323232"></path><path d="M1809 0L1428 292.3L1780 253.3Z" fill="#0d0d0d" stroke="#323232"></path><path d="M1780 253.3L1428 292.3L1882 579.7Z" fill="#020202" stroke="#323232"></path><path d="M1282 587.7L1312 1000L1882 579.7Z" fill="#0b0b0b" stroke="#323232"></path><path d="M1428 292.3L1282 587.7L1882 579.7Z" fill="#040404" stroke="#323232"></path><path d="M1809 0L1288 0L1428 292.3Z" fill="#0f0f0f" stroke="#323232"></path><path d="M1428 292.3L814 398.3L1282 587.7Z" fill="#020202" stroke="#323232"></path><path d="M7707 610.7L7205 423.3L7109 731.7Z" fill="#040404" stroke="#323232"></path><path d="M7205 423.3L7584 261.3L7190 0Z" fill="#0d0d0d" stroke="#323232"></path><path d="M7584 261.3L7602 0L7190 0Z" fill="#040404" stroke="#323232"></path><path d="M7726 1000L7707 610.7L7109 731.7Z" fill="#131313" stroke="#323232"></path><path d="M7584 261.3L8025 0L7602 0Z" fill="#121212" stroke="#323232"></path><path d="M7114 1000L7726 1000L7109 731.7Z" fill="#040404" stroke="#323232"></path><path d="M814 398.3L939 752.7L1282 587.7Z" fill="#0b0b0b" stroke="#323232"></path><path d="M1282 587.7L939 752.7L1312 1000Z" fill="#000000" stroke="#323232"></path><path d="M939 752.7L858 1000L1312 1000Z" fill="#090909" stroke="#323232"></path><path d="M1288 0L814 398.3L1428 292.3Z" fill="#101010" stroke="#323232"></path><path d="M445 627.7L461 1000L858 1000Z" fill="#020202" stroke="#323232"></path><path d="M1288 0L855 0L814 398.3Z" fill="#0f0f0f" stroke="#323232"></path><path d="M8136 657.7L8037 405.3L7707 610.7Z" fill="#070707" stroke="#323232"></path><path d="M7707 610.7L8037 405.3L7584 261.3Z" fill="#0d0d0d" stroke="#323232"></path><path d="M8037 405.3L8025 0L7584 261.3Z" fill="#101010" stroke="#323232"></path><path d="M7726 1000L8136 657.7L7707 610.7Z" fill="#101010" stroke="#323232"></path><path d="M8037 405.3L8578 0L8025 0Z" fill="#040404" stroke="#323232"></path><path d="M7726 1000L8199 1000L8136 657.7Z" fill="#040404" stroke="#323232"></path><path d="M8136 657.7L8463 601.7L8037 405.3Z" fill="#040404" stroke="#323232"></path><path d="M445 627.7L858 1000L939 752.7Z" fill="#101010" stroke="#323232"></path><path d="M445 627.7L939 752.7L814 398.3Z" fill="#020202" stroke="#323232"></path><path d="M481 244.3L445 627.7L814 398.3Z" fill="#0b0b0b" stroke="#323232"></path><path d="M855 0L481 244.3L814 398.3Z" fill="#121212" stroke="#323232"></path><path d="M855 0L482 0L481 244.3Z" fill="#070707" stroke="#323232"></path><path d="M0 714.7L461 1000L445 627.7Z" fill="#0d0d0d" stroke="#323232"></path><path d="M8199 1000L8463 601.7L8136 657.7Z" fill="#0d0d0d" stroke="#323232"></path><path d="M8199 1000L8611 1000L8463 601.7Z" fill="#0d0d0d" stroke="#323232"></path><path d="M9000 637.7L8613 406.3L8463 601.7Z" fill="#040404" stroke="#323232"></path><path d="M8463 601.7L8613 406.3L8037 405.3Z" fill="#0f0f0f" stroke="#323232"></path><path d="M8613 406.3L8578 0L8037 405.3Z" fill="#0b0b0b" stroke="#323232"></path><path d="M0 714.7L0 1000L461 1000Z" fill="#0f0f0f" stroke="#323232"></path><path d="M0 714.7L445 627.7L0 348.3Z" fill="#131313" stroke="#323232"></path><path d="M0 348.3L445 627.7L481 244.3Z" fill="#0f0f0f" stroke="#323232"></path><path d="M0 0L0 348.3L481 244.3Z" fill="#020202" stroke="#323232"></path><path d="M482 0L0 0L481 244.3Z" fill="#101010" stroke="#323232"></path><path d="M8611 1000L9000 637.7L8463 601.7Z" fill="#0b0b0b" stroke="#323232"></path><path d="M8613 406.3L9000 334.3L8578 0Z" fill="#121212" stroke="#323232"></path><path d="M9000 1000L9000 637.7L8611 1000Z" fill="#0f0f0f" stroke="#323232"></path><path d="M9000 637.7L9000 334.3L8613 406.3Z" fill="#070707" stroke="#323232"></path><path d="M9000 334.3L9000 0L8578 0Z" fill="#000000" stroke="#323232"></path></g></svg>