<svg id="visual" viewBox="0 0 900 100" width="900" height="100" xmlns="http://www.w3.org/2000/svg" xmlns:xlink="http://www.w3.org/1999/xlink" version="1.1"><rect x="0" y="0" width="900" height="100" fill="#000000"></rect><path d="M0 11L6.5 14.8C13 18.7 26 26.3 39 26.5C52 26.7 65 19.3 78 24C91 28.7 104 45.3 117.2 49.2C130.3 53 143.7 44 156.8 38C170 32 183 29 196 27.2C209 25.3 222 24.7 235 24C248 23.3 261 22.7 274 25C287 27.3 300 32.7 313 34.7C326 36.7 339 35.3 352 32.2C365 29 378 24 391 21.2C404 18.3 417 17.7 430.2 21.3C443.3 25 456.7 33 469.8 31C483 29 496 17 509 18.7C522 20.3 535 35.7 548 37.3C561 39 574 27 587 26.5C600 26 613 37 626 35.8C639 34.7 652 21.3 665 18.8C678 16.3 691 24.7 704 31.8C717 39 730 45 743.2 48C756.3 51 769.7 51 782.8 52C796 53 809 55 822 55.8C835 56.7 848 56.3 861 55.2C874 54 887 52 893.5 51L900 50L900 101L893.5 101C887 101 874 101 861 101C848 101 835 101 822 101C809 101 796 101 782.8 101C769.7 101 756.3 101 743.2 101C730 101 717 101 704 101C691 101 678 101 665 101C652 101 639 101 626 101C613 101 600 101 587 101C574 101 561 101 548 101C535 101 522 101 509 101C496 101 483 101 469.8 101C456.7 101 443.3 101 430.2 101C417 101 404 101 391 101C378 101 365 101 352 101C339 101 326 101 313 101C300 101 287 101 274 101C261 101 248 101 235 101C222 101 209 101 196 101C183 101 170 101 156.8 101C143.7 101 130.3 101 117.2 101C104 101 91 101 78 101C65 101 52 101 39 101C26 101 13 101 6.5 101L0 101Z" fill="#ff0000"></path><path d="M0 20L6.5 20.7C13 21.3 26 22.7 39 25.2C52 27.7 65 31.3 78 35C91 38.7 104 42.3 117.2 41.3C130.3 40.3 143.7 34.7 156.8 31.5C170 28.3 183 27.7 196 32.5C209 37.3 222 47.7 235 49.7C248 51.7 261 45.3 274 45.7C287 46 300 53 313 53.8C326 54.7 339 49.3 352 41.5C365 33.7 378 23.3 391 24.3C404 25.3 417 37.7 430.2 42.3C443.3 47 456.7 44 469.8 45C483 46 496 51 509 48.7C522 46.3 535 36.7 548 32.7C561 28.7 574 30.3 587 35.3C600 40.3 613 48.7 626 54.3C639 60 652 63 665 59.2C678 55.3 691 44.7 704 39.2C717 33.7 730 33.3 743.2 35.7C756.3 38 769.7 43 782.8 46.8C796 50.7 809 53.3 822 48.2C835 43 848 30 861 28C874 26 887 35 893.5 39.5L900 44L900 101L893.5 101C887 101 874 101 861 101C848 101 835 101 822 101C809 101 796 101 782.8 101C769.7 101 756.3 101 743.2 101C730 101 717 101 704 101C691 101 678 101 665 101C652 101 639 101 626 101C613 101 600 101 587 101C574 101 561 101 548 101C535 101 522 101 509 101C496 101 483 101 469.8 101C456.7 101 443.3 101 430.2 101C417 101 404 101 391 101C378 101 365 101 352 101C339 101 326 101 313 101C300 101 287 101 274 101C261 101 248 101 235 101C222 101 209 101 196 101C183 101 170 101 156.8 101C143.7 101 130.3 101 117.2 101C104 101 91 101 78 101C65 101 52 101 39 101C26 101 13 101 6.5 101L0 101Z" fill="#eb0004"></path><path d="M0 39L6.5 38.7C13 38.3 26 37.7 39 36.8C52 36 65 35 78 37.2C91 39.3 104 44.7 117.2 51.2C130.3 57.7 143.7 65.3 156.8 60.8C170 56.3 183 39.7 196 36.5C209 33.3 222 43.7 235 50C248 56.3 261 58.7 274 59.2C287 59.7 300 58.3 313 54C326 49.7 339 42.3 352 39.7C365 37 378 39 391 42.8C404 46.7 417 52.3 430.2 51.8C443.3 51.3 456.7 44.7 469.8 43.8C483 43 496 48 509 50.8C522 53.7 535 54.3 548 55.3C561 56.3 574 57.7 587 52.5C600 47.3 613 35.7 626 34.7C639 33.7 652 43.3 665 48.8C678 54.3 691 55.7 704 56.7C717 57.7 730 58.3 743.2 58.7C756.3 59 769.7 59 782.8 56.8C796 54.7 809 50.3 822 46C835 41.7 848 37.3 861 40.7C874 44 887 55 893.5 60.5L900 66L900 101L893.5 101C887 101 874 101 861 101C848 101 835 101 822 101C809 101 796 101 782.8 101C769.7 101 756.3 101 743.2 101C730 101 717 101 704 101C691 101 678 101 665 101C652 101 639 101 626 101C613 101 600 101 587 101C574 101 561 101 548 101C535 101 522 101 509 101C496 101 483 101 469.8 101C456.7 101 443.3 101 430.2 101C417 101 404 101 391 101C378 101 365 101 352 101C339 101 326 101 313 101C300 101 287 101 274 101C261 101 248 101 235 101C222 101 209 101 196 101C183 101 170 101 156.8 101C143.7 101 130.3 101 117.2 101C104 101 91 101 78 101C65 101 52 101 39 101C26 101 13 101 6.5 101L0 101Z" fill="#d80008"></path><path d="M0 65L6.5 64.2C13 63.3 26 61.7 39 60.5C52 59.3 65 58.7 78 61.3C91 64 104 70 117.2 67C130.3 64 143.7 52 156.8 49.3C170 46.7 183 53.3 196 52.3C209 51.3 222 42.7 235 39.3C248 36 261 38 274 41.7C287 45.3 300 50.7 313 50.5C326 50.3 339 44.7 352 40.2C365 35.7 378 32.3 391 37.7C404 43 417 57 430.2 58.5C443.3 60 456.7 49 469.8 45.8C483 42.7 496 47.3 509 49.8C522 52.3 535 52.7 548 48.8C561 45 574 37 587 37C600 37 613 45 626 46.7C639 48.3 652 43.7 665 39.8C678 36 691 33 704 33C717 33 730 36 743.2 42.3C756.3 48.7 769.7 58.3 782.8 59.8C796 61.3 809 54.7 822 48.3C835 42 848 36 861 39.3C874 42.7 887 55.3 893.5 61.7L900 68L900 101L893.5 101C887 101 874 101 861 101C848 101 835 101 822 101C809 101 796 101 782.8 101C769.7 101 756.3 101 743.2 101C730 101 717 101 704 101C691 101 678 101 665 101C652 101 639 101 626 101C613 101 600 101 587 101C574 101 561 101 548 101C535 101 522 101 509 101C496 101 483 101 469.8 101C456.7 101 443.3 101 430.2 101C417 101 404 101 391 101C378 101 365 101 352 101C339 101 326 101 313 101C300 101 287 101 274 101C261 101 248 101 235 101C222 101 209 101 196 101C183 101 170 101 156.8 101C143.7 101 130.3 101 117.2 101C104 101 91 101 78 101C65 101 52 101 39 101C26 101 13 101 6.5 101L0 101Z" fill="#c4000a"></path><path d="M0 75L6.5 75.3C13 75.7 26 76.3 39 70C52 63.7 65 50.3 78 48.5C91 46.7 104 56.3 117.2 62.3C130.3 68.3 143.7 70.7 156.8 71C170 71.3 183 69.7 196 65.3C209 61 222 54 235 50.8C248 47.7 261 48.3 274 49.5C287 50.7 300 52.3 313 55C326 57.7 339 61.3 352 62.8C365 64.3 378 63.7 391 64.5C404 65.3 417 67.7 430.2 69.5C443.3 71.3 456.7 72.7 469.8 69.5C483 66.3 496 58.7 509 52.5C522 46.3 535 41.7 548 42.3C561 43 574 49 587 52.8C600 56.7 613 58.3 626 59.2C639 60 652 60 665 56.2C678 52.3 691 44.7 704 45.3C717 46 730 55 743.2 59.8C756.3 64.7 769.7 65.3 782.8 60.7C796 56 809 46 822 44.7C835 43.3 848 50.7 861 52.8C874 55 887 52 893.5 50.5L900 49L900 101L893.5 101C887 101 874 101 861 101C848 101 835 101 822 101C809 101 796 101 782.8 101C769.7 101 756.3 101 743.2 101C730 101 717 101 704 101C691 101 678 101 665 101C652 101 639 101 626 101C613 101 600 101 587 101C574 101 561 101 548 101C535 101 522 101 509 101C496 101 483 101 469.8 101C456.7 101 443.3 101 430.2 101C417 101 404 101 391 101C378 101 365 101 352 101C339 101 326 101 313 101C300 101 287 101 274 101C261 101 248 101 235 101C222 101 209 101 196 101C183 101 170 101 156.8 101C143.7 101 130.3 101 117.2 101C104 101 91 101 78 101C65 101 52 101 39 101C26 101 13 101 6.5 101L0 101Z" fill="#b1000b"></path><path d="M0 84L6.5 84C13 84 26 84 39 83C52 82 65 80 78 78.8C91 77.7 104 77.3 117.2 74.7C130.3 72 143.7 67 156.8 63.5C170 60 183 58 196 56.2C209 54.3 222 52.7 235 51C248 49.3 261 47.7 274 53C287 58.3 300 70.7 313 75.3C326 80 339 77 352 72.8C365 68.7 378 63.3 391 63.2C404 63 417 68 430.2 67.3C443.3 66.7 456.7 60.3 469.8 60C483 59.7 496 65.3 509 64.2C522 63 535 55 548 52C561 49 574 51 587 52.2C600 53.3 613 53.7 626 55.8C639 58 652 62 665 66.8C678 71.7 691 77.3 704 75C717 72.7 730 62.3 743.2 57C756.3 51.7 769.7 51.3 782.8 52.8C796 54.3 809 57.7 822 62.3C835 67 848 73 861 74.8C874 76.7 887 74.3 893.5 73.2L900 72L900 101L893.5 101C887 101 874 101 861 101C848 101 835 101 822 101C809 101 796 101 782.8 101C769.7 101 756.3 101 743.2 101C730 101 717 101 704 101C691 101 678 101 665 101C652 101 639 101 626 101C613 101 600 101 587 101C574 101 561 101 548 101C535 101 522 101 509 101C496 101 483 101 469.8 101C456.7 101 443.3 101 430.2 101C417 101 404 101 391 101C378 101 365 101 352 101C339 101 326 101 313 101C300 101 287 101 274 101C261 101 248 101 235 101C222 101 209 101 196 101C183 101 170 101 156.8 101C143.7 101 130.3 101 117.2 101C104 101 91 101 78 101C65 101 52 101 39 101C26 101 13 101 6.5 101L0 101Z" fill="#9f000b"></path><path d="M0 82L6.5 82.7C13 83.3 26 84.7 39 82.2C52 79.7 65 73.3 78 70C91 66.7 104 66.3 117.2 68.5C130.3 70.7 143.7 75.3 156.8 76.5C170 77.7 183 75.3 196 75.5C209 75.7 222 78.3 235 78.7C248 79 261 77 274 75.5C287 74 300 73 313 72.2C326 71.3 339 70.7 352 67.8C365 65 378 60 391 59.7C404 59.3 417 63.7 430.2 64.3C443.3 65 456.7 62 469.8 62.2C483 62.3 496 65.7 509 68.2C522 70.7 535 72.3 548 70.5C561 68.7 574 63.3 587 62.7C600 62 613 66 626 66.8C639 67.7 652 65.3 665 62.7C678 60 691 57 704 58.2C717 59.3 730 64.7 743.2 68.8C756.3 73 769.7 76 782.8 75.7C796 75.3 809 71.7 822 69.2C835 66.7 848 65.3 861 64.8C874 64.3 887 64.7 893.5 64.8L900 65L900 101L893.5 101C887 101 874 101 861 101C848 101 835 101 822 101C809 101 796 101 782.8 101C769.7 101 756.3 101 743.2 101C730 101 717 101 704 101C691 101 678 101 665 101C652 101 639 101 626 101C613 101 600 101 587 101C574 101 561 101 548 101C535 101 522 101 509 101C496 101 483 101 469.8 101C456.7 101 443.3 101 430.2 101C417 101 404 101 391 101C378 101 365 101 352 101C339 101 326 101 313 101C300 101 287 101 274 101C261 101 248 101 235 101C222 101 209 101 196 101C183 101 170 101 156.8 101C143.7 101 130.3 101 117.2 101C104 101 91 101 78 101C65 101 52 101 39 101C26 101 13 101 6.5 101L0 101Z" fill="#8c000a"></path><path d="M0 64L6.5 64.2C13 64.3 26 64.7 39 68.8C52 73 65 81 78 83.2C91 85.3 104 81.7 117.2 79.8C130.3 78 143.7 78 156.8 80C170 82 183 86 196 86.3C209 86.7 222 83.3 235 80.8C248 78.3 261 76.7 274 76.8C287 77 300 79 313 78.7C326 78.3 339 75.7 352 77.5C365 79.3 378 85.7 391 88.3C404 91 417 90 430.2 89.5C443.3 89 456.7 89 469.8 87.8C483 86.7 496 84.3 509 83.5C522 82.7 535 83.3 548 82.7C561 82 574 80 587 80C600 80 613 82 626 82C639 82 652 80 665 76.7C678 73.3 691 68.7 704 69.8C717 71 730 78 743.2 79.8C756.3 81.7 769.7 78.3 782.8 76.8C796 75.3 809 75.7 822 74.2C835 72.7 848 69.3 861 69.7C874 70 887 74 893.5 76L900 78L900 101L893.5 101C887 101 874 101 861 101C848 101 835 101 822 101C809 101 796 101 782.8 101C769.7 101 756.3 101 743.2 101C730 101 717 101 704 101C691 101 678 101 665 101C652 101 639 101 626 101C613 101 600 101 587 101C574 101 561 101 548 101C535 101 522 101 509 101C496 101 483 101 469.8 101C456.7 101 443.3 101 430.2 101C417 101 404 101 391 101C378 101 365 101 352 101C339 101 326 101 313 101C300 101 287 101 274 101C261 101 248 101 235 101C222 101 209 101 196 101C183 101 170 101 156.8 101C143.7 101 130.3 101 117.2 101C104 101 91 101 78 101C65 101 52 101 39 101C26 101 13 101 6.5 101L0 101Z" fill="#7a0008"></path><path d="M0 91L6.5 88C13 85 26 79 39 76.7C52 74.3 65 75.7 78 78.2C91 80.7 104 84.3 117.2 86.5C130.3 88.7 143.7 89.3 156.8 89.8C170 90.3 183 90.7 196 88.7C209 86.7 222 82.3 235 81C248 79.7 261 81.3 274 81.5C287 81.7 300 80.3 313 81.2C326 82 339 85 352 85.3C365 85.7 378 83.3 391 81.7C404 80 417 79 430.2 78.2C443.3 77.3 456.7 76.7 469.8 76.2C483 75.7 496 75.3 509 77.2C522 79 535 83 548 82.5C561 82 574 77 587 74.5C600 72 613 72 626 72C639 72 652 72 665 73C678 74 691 76 704 77.7C717 79.3 730 80.7 743.2 80.8C756.3 81 769.7 80 782.8 82C796 84 809 89 822 91.5C835 94 848 94 861 91.2C874 88.3 887 82.7 893.5 79.8L900 77L900 101L893.5 101C887 101 874 101 861 101C848 101 835 101 822 101C809 101 796 101 782.8 101C769.7 101 756.3 101 743.2 101C730 101 717 101 704 101C691 101 678 101 665 101C652 101 639 101 626 101C613 101 600 101 587 101C574 101 561 101 548 101C535 101 522 101 509 101C496 101 483 101 469.8 101C456.7 101 443.3 101 430.2 101C417 101 404 101 391 101C378 101 365 101 352 101C339 101 326 101 313 101C300 101 287 101 274 101C261 101 248 101 235 101C222 101 209 101 196 101C183 101 170 101 156.8 101C143.7 101 130.3 101 117.2 101C104 101 91 101 78 101C65 101 52 101 39 101C26 101 13 101 6.5 101L0 101Z" fill="#680005"></path><path d="M0 91L6.5 90C13 89 26 87 39 85.3C52 83.7 65 82.3 78 83.7C91 85 104 89 117.2 91C130.3 93 143.7 93 156.8 93.5C170 94 183 95 196 94.2C209 93.3 222 90.7 235 91.2C248 91.7 261 95.3 274 95C287 94.7 300 90.3 313 89.5C326 88.7 339 91.3 352 92.2C365 93 378 92 391 90.8C404 89.7 417 88.3 430.2 89C443.3 89.7 456.7 92.3 469.8 91.3C483 90.3 496 85.7 509 84C522 82.3 535 83.7 548 86.7C561 89.7 574 94.3 587 94.8C600 95.3 613 91.7 626 88.8C639 86 652 84 665 84.2C678 84.3 691 86.7 704 87C717 87.3 730 85.7 743.2 86.3C756.3 87 769.7 90 782.8 91.3C796 92.7 809 92.3 822 91C835 89.7 848 87.3 861 87C874 86.7 887 88.3 893.5 89.2L900 90L900 101L893.5 101C887 101 874 101 861 101C848 101 835 101 822 101C809 101 796 101 782.8 101C769.7 101 756.3 101 743.2 101C730 101 717 101 704 101C691 101 678 101 665 101C652 101 639 101 626 101C613 101 600 101 587 101C574 101 561 101 548 101C535 101 522 101 509 101C496 101 483 101 469.8 101C456.7 101 443.3 101 430.2 101C417 101 404 101 391 101C378 101 365 101 352 101C339 101 326 101 313 101C300 101 287 101 274 101C261 101 248 101 235 101C222 101 209 101 196 101C183 101 170 101 156.8 101C143.7 101 130.3 101 117.2 101C104 101 91 101 78 101C65 101 52 101 39 101C26 101 13 101 6.5 101L0 101Z" fill="#570000"></path></svg>