<svg id="visual" viewBox="0 0 900 100" width="900" height="100" xmlns="http://www.w3.org/2000/svg" xmlns:xlink="http://www.w3.org/1999/xlink" version="1.1"><rect x="0" y="0" width="900" height="100" fill="#00000"></rect><path d="M0 24L6.5 28.2C13 32.3 26 40.7 39 44.7C52 48.7 65 48.3 78 46.2C91 44 104 40 117.2 35C130.3 30 143.7 24 156.8 28.2C170 32.3 183 46.7 196 57.7C209 68.7 222 76.3 235 80.2C248 84 261 84 274 76C287 68 300 52 313 44.3C326 36.7 339 37.3 352 38C365 38.7 378 39.3 391 37.5C404 35.7 417 31.3 430.2 32.8C443.3 34.3 456.7 41.7 469.8 50.2C483 58.7 496 68.3 509 64.8C522 61.3 535 44.7 548 44C561 43.3 574 58.7 587 59.7C600 60.7 613 47.3 626 46.8C639 46.3 652 58.7 665 63C678 67.3 691 63.7 704 63.8C717 64 730 68 743.2 67.2C756.3 66.3 769.7 60.7 782.8 61C796 61.3 809 67.7 822 60.8C835 54 848 34 861 35.8C874 37.7 887 61.3 893.5 73.2L900 85L900 101L893.5 101C887 101 874 101 861 101C848 101 835 101 822 101C809 101 796 101 782.8 101C769.7 101 756.3 101 743.2 101C730 101 717 101 704 101C691 101 678 101 665 101C652 101 639 101 626 101C613 101 600 101 587 101C574 101 561 101 548 101C535 101 522 101 509 101C496 101 483 101 469.8 101C456.7 101 443.3 101 430.2 101C417 101 404 101 391 101C378 101 365 101 352 101C339 101 326 101 313 101C300 101 287 101 274 101C261 101 248 101 235 101C222 101 209 101 196 101C183 101 170 101 156.8 101C143.7 101 130.3 101 117.2 101C104 101 91 101 78 101C65 101 52 101 39 101C26 101 13 101 6.5 101L0 101Z" fill="#ff0000"></path><path d="M0 67L6.5 62C13 57 26 47 39 50.3C52 53.7 65 70.3 78 70.2C91 70 104 53 117.2 51.3C130.3 49.7 143.7 63.3 156.8 69.5C170 75.7 183 74.3 196 70.5C209 66.7 222 60.3 235 50.5C248 40.7 261 27.3 274 30.8C287 34.3 300 54.7 313 65.5C326 76.3 339 77.7 352 78.3C365 79 378 79 391 76.2C404 73.3 417 67.7 430.2 59.7C443.3 51.7 456.7 41.3 469.8 36.7C483 32 496 33 509 35.3C522 37.7 535 41.3 548 48.7C561 56 574 67 587 67.8C600 68.7 613 59.3 626 60C639 60.7 652 71.3 665 76.2C678 81 691 80 704 79.5C717 79 730 79 743.2 77.8C756.3 76.7 769.7 74.3 782.8 64.7C796 55 809 38 822 30.2C835 22.3 848 23.7 861 24.3C874 25 887 25 893.5 25L900 25L900 101L893.5 101C887 101 874 101 861 101C848 101 835 101 822 101C809 101 796 101 782.8 101C769.7 101 756.3 101 743.2 101C730 101 717 101 704 101C691 101 678 101 665 101C652 101 639 101 626 101C613 101 600 101 587 101C574 101 561 101 548 101C535 101 522 101 509 101C496 101 483 101 469.8 101C456.7 101 443.3 101 430.2 101C417 101 404 101 391 101C378 101 365 101 352 101C339 101 326 101 313 101C300 101 287 101 274 101C261 101 248 101 235 101C222 101 209 101 196 101C183 101 170 101 156.8 101C143.7 101 130.3 101 117.2 101C104 101 91 101 78 101C65 101 52 101 39 101C26 101 13 101 6.5 101L0 101Z" fill="#ef0004"></path><path d="M0 56L6.5 52C13 48 26 40 39 34.8C52 29.7 65 27.3 78 28.2C91 29 104 33 117.2 41.3C130.3 49.7 143.7 62.3 156.8 59.7C170 57 183 39 196 33.8C209 28.7 222 36.3 235 45.7C248 55 261 66 274 63.5C287 61 300 45 313 38.2C326 31.3 339 33.7 352 39C365 44.3 378 52.7 391 54.7C404 56.7 417 52.3 430.2 52.8C443.3 53.3 456.7 58.7 469.8 56.5C483 54.3 496 44.7 509 47.8C522 51 535 67 548 72.8C561 78.7 574 74.3 587 69.7C600 65 613 60 626 54.2C639 48.3 652 41.7 665 41.3C678 41 691 47 704 46.8C717 46.7 730 40.3 743.2 38.7C756.3 37 769.7 40 782.8 45.2C796 50.3 809 57.7 822 63.3C835 69 848 73 861 71.3C874 69.7 887 62.3 893.5 58.7L900 55L900 101L893.5 101C887 101 874 101 861 101C848 101 835 101 822 101C809 101 796 101 782.8 101C769.7 101 756.3 101 743.2 101C730 101 717 101 704 101C691 101 678 101 665 101C652 101 639 101 626 101C613 101 600 101 587 101C574 101 561 101 548 101C535 101 522 101 509 101C496 101 483 101 469.8 101C456.7 101 443.3 101 430.2 101C417 101 404 101 391 101C378 101 365 101 352 101C339 101 326 101 313 101C300 101 287 101 274 101C261 101 248 101 235 101C222 101 209 101 196 101C183 101 170 101 156.8 101C143.7 101 130.3 101 117.2 101C104 101 91 101 78 101C65 101 52 101 39 101C26 101 13 101 6.5 101L0 101Z" fill="#df0007"></path><path d="M0 36L6.5 39.2C13 42.3 26 48.7 39 52.3C52 56 65 57 78 60.8C91 64.7 104 71.3 117.2 69.2C130.3 67 143.7 56 156.8 56.5C170 57 183 69 196 67.3C209 65.7 222 50.3 235 41.2C248 32 261 29 274 36.8C287 44.7 300 63.3 313 65.2C326 67 339 52 352 48.8C365 45.7 378 54.3 391 60.8C404 67.3 417 71.7 430.2 73.8C443.3 76 456.7 76 469.8 74.8C483 73.7 496 71.3 509 64.5C522 57.7 535 46.3 548 48.2C561 50 574 65 587 69.8C600 74.7 613 69.3 626 65.5C639 61.7 652 59.3 665 62.8C678 66.3 691 75.7 704 73.8C717 72 730 59 743.2 49.8C756.3 40.7 769.7 35.3 782.8 39.8C796 44.3 809 58.7 822 58.7C835 58.7 848 44.3 861 37.7C874 31 887 32 893.5 32.5L900 33L900 101L893.5 101C887 101 874 101 861 101C848 101 835 101 822 101C809 101 796 101 782.8 101C769.7 101 756.3 101 743.2 101C730 101 717 101 704 101C691 101 678 101 665 101C652 101 639 101 626 101C613 101 600 101 587 101C574 101 561 101 548 101C535 101 522 101 509 101C496 101 483 101 469.8 101C456.7 101 443.3 101 430.2 101C417 101 404 101 391 101C378 101 365 101 352 101C339 101 326 101 313 101C300 101 287 101 274 101C261 101 248 101 235 101C222 101 209 101 196 101C183 101 170 101 156.8 101C143.7 101 130.3 101 117.2 101C104 101 91 101 78 101C65 101 52 101 39 101C26 101 13 101 6.5 101L0 101Z" fill="#cf0009"></path><path d="M0 71L6.5 65.8C13 60.7 26 50.3 39 53.3C52 56.3 65 72.7 78 80.8C91 89 104 89 117.2 81.5C130.3 74 143.7 59 156.8 54.2C170 49.3 183 54.7 196 58.3C209 62 222 64 235 68C248 72 261 78 274 81.5C287 85 300 86 313 78.8C326 71.7 339 56.3 352 49.7C365 43 378 45 391 43.8C404 42.7 417 38.3 430.2 42.7C443.3 47 456.7 60 469.8 67.5C483 75 496 77 509 72.2C522 67.3 535 55.7 548 57C561 58.3 574 72.7 587 72.5C600 72.3 613 57.7 626 53.7C639 49.7 652 56.3 665 64.2C678 72 691 81 704 85.2C717 89.3 730 88.7 743.2 88C756.3 87.3 769.7 86.7 782.8 85C796 83.3 809 80.7 822 78.7C835 76.7 848 75.3 861 76.8C874 78.3 887 82.7 893.5 84.8L900 87L900 101L893.5 101C887 101 874 101 861 101C848 101 835 101 822 101C809 101 796 101 782.8 101C769.7 101 756.3 101 743.2 101C730 101 717 101 704 101C691 101 678 101 665 101C652 101 639 101 626 101C613 101 600 101 587 101C574 101 561 101 548 101C535 101 522 101 509 101C496 101 483 101 469.8 101C456.7 101 443.3 101 430.2 101C417 101 404 101 391 101C378 101 365 101 352 101C339 101 326 101 313 101C300 101 287 101 274 101C261 101 248 101 235 101C222 101 209 101 196 101C183 101 170 101 156.8 101C143.7 101 130.3 101 117.2 101C104 101 91 101 78 101C65 101 52 101 39 101C26 101 13 101 6.5 101L0 101Z" fill="#bf000a"></path><path d="M0 87L6.5 79.5C13 72 26 57 39 57.2C52 57.3 65 72.7 78 76.2C91 79.7 104 71.3 117.2 68C130.3 64.7 143.7 66.3 156.8 67.7C170 69 183 70 196 71.8C209 73.7 222 76.3 235 76C248 75.7 261 72.3 274 73.5C287 74.7 300 80.3 313 81.3C326 82.3 339 78.7 352 77C365 75.3 378 75.7 391 74.3C404 73 417 70 430.2 70.8C443.3 71.7 456.7 76.3 469.8 72C483 67.7 496 54.3 509 49.7C522 45 535 49 548 55.8C561 62.7 574 72.3 587 77C600 81.7 613 81.3 626 80.7C639 80 652 79 665 72.5C678 66 691 54 704 54C717 54 730 66 743.2 73.7C756.3 81.3 769.7 84.7 782.8 79.7C796 74.7 809 61.3 822 58.8C835 56.3 848 64.7 861 64.2C874 63.7 887 54.3 893.5 49.7L900 45L900 101L893.5 101C887 101 874 101 861 101C848 101 835 101 822 101C809 101 796 101 782.8 101C769.7 101 756.3 101 743.2 101C730 101 717 101 704 101C691 101 678 101 665 101C652 101 639 101 626 101C613 101 600 101 587 101C574 101 561 101 548 101C535 101 522 101 509 101C496 101 483 101 469.8 101C456.7 101 443.3 101 430.2 101C417 101 404 101 391 101C378 101 365 101 352 101C339 101 326 101 313 101C300 101 287 101 274 101C261 101 248 101 235 101C222 101 209 101 196 101C183 101 170 101 156.8 101C143.7 101 130.3 101 117.2 101C104 101 91 101 78 101C65 101 52 101 39 101C26 101 13 101 6.5 101L0 101Z" fill="#b0000b"></path><path d="M0 80L6.5 77C13 74 26 68 39 68.7C52 69.3 65 76.7 78 76C91 75.3 104 66.7 117.2 62C130.3 57.3 143.7 56.7 156.8 57.5C170 58.3 183 60.7 196 60C209 59.3 222 55.7 235 56.2C248 56.7 261 61.3 274 65.3C287 69.3 300 72.7 313 70.5C326 68.3 339 60.7 352 56.5C365 52.3 378 51.7 391 56.5C404 61.3 417 71.7 430.2 71.3C443.3 71 456.7 60 469.8 60C483 60 496 71 509 76C522 81 535 80 548 80.8C561 81.7 574 84.3 587 84.8C600 85.3 613 83.7 626 83C639 82.3 652 82.7 665 82.7C678 82.7 691 82.3 704 79C717 75.7 730 69.3 743.2 70.3C756.3 71.3 769.7 79.7 782.8 79.5C796 79.3 809 70.7 822 64.5C835 58.3 848 54.7 861 57.2C874 59.7 887 68.3 893.5 72.7L900 77L900 101L893.5 101C887 101 874 101 861 101C848 101 835 101 822 101C809 101 796 101 782.8 101C769.7 101 756.3 101 743.2 101C730 101 717 101 704 101C691 101 678 101 665 101C652 101 639 101 626 101C613 101 600 101 587 101C574 101 561 101 548 101C535 101 522 101 509 101C496 101 483 101 469.8 101C456.7 101 443.3 101 430.2 101C417 101 404 101 391 101C378 101 365 101 352 101C339 101 326 101 313 101C300 101 287 101 274 101C261 101 248 101 235 101C222 101 209 101 196 101C183 101 170 101 156.8 101C143.7 101 130.3 101 117.2 101C104 101 91 101 78 101C65 101 52 101 39 101C26 101 13 101 6.5 101L0 101Z" fill="#a0000b"></path><path d="M0 73L6.5 73.2C13 73.3 26 73.7 39 71.7C52 69.7 65 65.3 78 62.7C91 60 104 59 117.2 62.8C130.3 66.7 143.7 75.3 156.8 75.5C170 75.7 183 67.3 196 65.5C209 63.7 222 68.3 235 73.2C248 78 261 83 274 84.5C287 86 300 84 313 80.3C326 76.7 339 71.3 352 70C365 68.7 378 71.3 391 72.5C404 73.7 417 73.3 430.2 71.7C443.3 70 456.7 67 469.8 67C483 67 496 70 509 69.7C522 69.3 535 65.7 548 63.7C561 61.7 574 61.3 587 64.7C600 68 613 75 626 76.8C639 78.7 652 75.3 665 72.3C678 69.3 691 66.7 704 69C717 71.3 730 78.7 743.2 79C756.3 79.3 769.7 72.7 782.8 73.7C796 74.7 809 83.3 822 84.3C835 85.3 848 78.7 861 78.3C874 78 887 84 893.5 87L900 90L900 101L893.5 101C887 101 874 101 861 101C848 101 835 101 822 101C809 101 796 101 782.8 101C769.7 101 756.3 101 743.2 101C730 101 717 101 704 101C691 101 678 101 665 101C652 101 639 101 626 101C613 101 600 101 587 101C574 101 561 101 548 101C535 101 522 101 509 101C496 101 483 101 469.8 101C456.7 101 443.3 101 430.2 101C417 101 404 101 391 101C378 101 365 101 352 101C339 101 326 101 313 101C300 101 287 101 274 101C261 101 248 101 235 101C222 101 209 101 196 101C183 101 170 101 156.8 101C143.7 101 130.3 101 117.2 101C104 101 91 101 78 101C65 101 52 101 39 101C26 101 13 101 6.5 101L0 101Z" fill="#91000b"></path><path d="M0 79L6.5 79.8C13 80.7 26 82.3 39 81.2C52 80 65 76 78 76.7C91 77.3 104 82.7 117.2 85.7C130.3 88.7 143.7 89.3 156.8 87.5C170 85.7 183 81.3 196 81.3C209 81.3 222 85.7 235 88.5C248 91.3 261 92.7 274 92.5C287 92.3 300 90.7 313 89.8C326 89 339 89 352 87.3C365 85.7 378 82.3 391 82.2C404 82 417 85 430.2 82.8C443.3 80.7 456.7 73.3 469.8 72.3C483 71.3 496 76.7 509 80C522 83.3 535 84.7 548 84C561 83.3 574 80.7 587 80.3C600 80 613 82 626 84.3C639 86.7 652 89.3 665 89.5C678 89.7 691 87.3 704 84.5C717 81.7 730 78.3 743.2 78.8C756.3 79.3 769.7 83.7 782.8 82.8C796 82 809 76 822 72.8C835 69.7 848 69.3 861 70.5C874 71.7 887 74.3 893.5 75.7L900 77L900 101L893.5 101C887 101 874 101 861 101C848 101 835 101 822 101C809 101 796 101 782.8 101C769.7 101 756.3 101 743.2 101C730 101 717 101 704 101C691 101 678 101 665 101C652 101 639 101 626 101C613 101 600 101 587 101C574 101 561 101 548 101C535 101 522 101 509 101C496 101 483 101 469.8 101C456.7 101 443.3 101 430.2 101C417 101 404 101 391 101C378 101 365 101 352 101C339 101 326 101 313 101C300 101 287 101 274 101C261 101 248 101 235 101C222 101 209 101 196 101C183 101 170 101 156.8 101C143.7 101 130.3 101 117.2 101C104 101 91 101 78 101C65 101 52 101 39 101C26 101 13 101 6.5 101L0 101Z" fill="#820009"></path><path d="M0 78L6.5 77.7C13 77.3 26 76.7 39 79.5C52 82.3 65 88.7 78 89C91 89.3 104 83.7 117.2 79.7C130.3 75.7 143.7 73.3 156.8 75.2C170 77 183 83 196 84C209 85 222 81 235 78.2C248 75.3 261 73.7 274 73.5C287 73.3 300 74.7 313 77.3C326 80 339 84 352 86C365 88 378 88 391 85C404 82 417 76 430.2 74.8C443.3 73.7 456.7 77.3 469.8 79C483 80.7 496 80.3 509 79.7C522 79 535 78 548 79.3C561 80.7 574 84.3 587 85.7C600 87 613 86 626 85.8C639 85.7 652 86.3 665 86.5C678 86.7 691 86.3 704 85.5C717 84.7 730 83.3 743.2 82.8C756.3 82.3 769.7 82.7 782.8 83.8C796 85 809 87 822 88.5C835 90 848 91 861 90C874 89 887 86 893.5 84.5L900 83L900 101L893.5 101C887 101 874 101 861 101C848 101 835 101 822 101C809 101 796 101 782.8 101C769.7 101 756.3 101 743.2 101C730 101 717 101 704 101C691 101 678 101 665 101C652 101 639 101 626 101C613 101 600 101 587 101C574 101 561 101 548 101C535 101 522 101 509 101C496 101 483 101 469.8 101C456.7 101 443.3 101 430.2 101C417 101 404 101 391 101C378 101 365 101 352 101C339 101 326 101 313 101C300 101 287 101 274 101C261 101 248 101 235 101C222 101 209 101 196 101C183 101 170 101 156.8 101C143.7 101 130.3 101 117.2 101C104 101 91 101 78 101C65 101 52 101 39 101C26 101 13 101 6.5 101L0 101Z" fill="#730007"></path><path d="M0 81L6.5 83.5C13 86 26 91 39 93.7C52 96.3 65 96.7 78 94.7C91 92.7 104 88.3 117.2 87.7C130.3 87 143.7 90 156.8 90.7C170 91.3 183 89.7 196 87.8C209 86 222 84 235 84.5C248 85 261 88 274 88.2C287 88.3 300 85.7 313 85.7C326 85.7 339 88.3 352 88.5C365 88.7 378 86.3 391 86.7C404 87 417 90 430.2 90.7C443.3 91.3 456.7 89.7 469.8 87.5C483 85.3 496 82.7 509 83.3C522 84 535 88 548 88C561 88 574 84 587 82.3C600 80.7 613 81.3 626 83C639 84.7 652 87.3 665 86.5C678 85.7 691 81.3 704 79.8C717 78.3 730 79.7 743.2 82.2C756.3 84.7 769.7 88.3 782.8 90.2C796 92 809 92 822 91C835 90 848 88 861 88.7C874 89.3 887 92.7 893.5 94.3L900 96L900 101L893.5 101C887 101 874 101 861 101C848 101 835 101 822 101C809 101 796 101 782.8 101C769.7 101 756.3 101 743.2 101C730 101 717 101 704 101C691 101 678 101 665 101C652 101 639 101 626 101C613 101 600 101 587 101C574 101 561 101 548 101C535 101 522 101 509 101C496 101 483 101 469.8 101C456.7 101 443.3 101 430.2 101C417 101 404 101 391 101C378 101 365 101 352 101C339 101 326 101 313 101C300 101 287 101 274 101C261 101 248 101 235 101C222 101 209 101 196 101C183 101 170 101 156.8 101C143.7 101 130.3 101 117.2 101C104 101 91 101 78 101C65 101 52 101 39 101C26 101 13 101 6.5 101L0 101Z" fill="#650004"></path><path d="M0 87L6.5 87.7C13 88.3 26 89.7 39 90.3C52 91 65 91 78 91.8C91 92.7 104 94.3 117.2 95.3C130.3 96.3 143.7 96.7 156.8 96.5C170 96.3 183 95.7 196 94.8C209 94 222 93 235 91.3C248 89.7 261 87.3 274 87.5C287 87.7 300 90.3 313 92C326 93.7 339 94.3 352 93.5C365 92.7 378 90.3 391 90.2C404 90 417 92 430.2 92.2C443.3 92.3 456.7 90.7 469.8 89.2C483 87.7 496 86.3 509 87.8C522 89.3 535 93.7 548 95.8C561 98 574 98 587 96.3C600 94.7 613 91.3 626 89.3C639 87.3 652 86.7 665 87.8C678 89 691 92 704 93C717 94 730 93 743.2 92.7C756.3 92.3 769.7 92.7 782.8 93.7C796 94.7 809 96.3 822 96.7C835 97 848 96 861 94.8C874 93.7 887 92.3 893.5 91.7L900 91L900 101L893.5 101C887 101 874 101 861 101C848 101 835 101 822 101C809 101 796 101 782.8 101C769.7 101 756.3 101 743.2 101C730 101 717 101 704 101C691 101 678 101 665 101C652 101 639 101 626 101C613 101 600 101 587 101C574 101 561 101 548 101C535 101 522 101 509 101C496 101 483 101 469.8 101C456.7 101 443.3 101 430.2 101C417 101 404 101 391 101C378 101 365 101 352 101C339 101 326 101 313 101C300 101 287 101 274 101C261 101 248 101 235 101C222 101 209 101 196 101C183 101 170 101 156.8 101C143.7 101 130.3 101 117.2 101C104 101 91 101 78 101C65 101 52 101 39 101C26 101 13 101 6.5 101L0 101Z" fill="#570000"></path></svg>