<svg id="visual" viewBox="0 0 900 600" width="900" height="600" xmlns="http://www.w3.org/2000/svg" xmlns:xlink="http://www.w3.org/1999/xlink" version="1.1"><rect x="0" y="0" width="900" height="600" fill="#000000"></rect><g fill="#ff0000"><circle r="14" cx="746" cy="246"></circle><circle r="1" cx="840" cy="565"></circle><circle r="1" cx="477" cy="283"></circle><circle r="7" cx="176" cy="65"></circle><circle r="12" cx="517" cy="43"></circle><circle r="10" cx="115" cy="93"></circle><circle r="10" cx="683" cy="258"></circle><circle r="5" cx="557" cy="509"></circle><circle r="11" cx="640" cy="420"></circle><circle r="7" cx="131" cy="426"></circle><circle r="0" cx="92" cy="309"></circle><circle r="11" cx="335" cy="214"></circle><circle r="9" cx="255" cy="50"></circle><circle r="5" cx="100" cy="528"></circle><circle r="11" cx="531" cy="524"></circle><circle r="6" cx="636" cy="276"></circle><circle r="8" cx="655" cy="16"></circle><circle r="8" cx="198" cy="528"></circle><circle r="4" cx="711" cy="423"></circle><circle r="3" cx="838" cy="337"></circle><circle r="9" cx="355" cy="85"></circle><circle r="12" cx="140" cy="250"></circle><circle r="3" cx="170" cy="292"></circle><circle r="6" cx="602" cy="370"></circle><circle r="11" cx="270" cy="301"></circle><circle r="10" cx="171" cy="478"></circle><circle r="1" cx="269" cy="358"></circle><circle r="10" cx="875" cy="59"></circle><circle r="4" cx="429" cy="456"></circle><circle r="12" cx="324" cy="288"></circle><circle r="0" cx="387" cy="284"></circle><circle r="0" cx="602" cy="538"></circle><circle r="10" cx="873" cy="308"></circle><circle r="0" cx="148" cy="139"></circle><circle r="3" cx="297" cy="494"></circle><circle r="0" cx="225" cy="19"></circle><circle r="3" cx="66" cy="384"></circle><circle r="8" cx="576" cy="154"></circle><circle r="4" cx="24" cy="398"></circle><circle r="6" cx="657" cy="161"></circle></g></svg>