<?xml version="1.0" encoding="utf-8"?><!-- Uploaded to: SVG Repo, www.svgrepo.com, Generator: SVG Repo Mixer Tools -->
<svg width="800px" height="800px" viewBox="0 0 512 512" xmlns="http://www.w3.org/2000/svg" xmlns:xlink="http://www.w3.org/1999/xlink" aria-hidden="true" role="img" class="iconify iconify--fxemoji" preserveAspectRatio="xMidYMid meet"><path fill="#000" d="M256 0c141.4 0 256 114.6 256 256S397.4 512 256 512S0 397.3 0 256C0 114.6 114.6 0 256 0z"></path><path fill="#2d4e39" d="M256 80c97.2 0 176 78.8 176 176s-78.8 176-176 176S80 353.2 80 256S158.8 80 256 80z"></path><path fill="#000" d="M256 160c53 0 96 43 96 96s-43 96-96 96s-96-43-96-96s43-96 96-96z"></path></svg>