<svg xmlns="http://www.w3.org/2000/svg" width="256" height="256" viewBox="0 0 100 100"><rect width="100" height="100" rx="20" fill="#131123"></rect><path fill="#fff" d="M28.52 84.04L18.97 84.04L18.97 34.95L28.52 34.95L28.52 84.04ZM23.79 27.37L23.79 27.37Q21.30 27.37 19.53 25.69Q17.75 24.02 17.75 21.68L17.75 21.68Q17.75 19.32 19.53 17.64Q21.30 15.96 23.79 15.96L23.79 15.96Q26.29 15.96 28.06 17.64Q29.83 19.32 29.83 21.68L29.83 21.68Q29.83 24.02 28.06 25.69Q26.29 27.37 23.79 27.37ZM53.77 84.04L43.45 84.04L72.02 27.53L72.02 27.05L38.97 27.05L38.97 18.58L82.25 18.58L82.25 27.34L53.77 84.04Z"></path></svg>
