<svg id="visual" viewBox="0 0 900 200" width="900" height="200" xmlns="http://www.w3.org/2000/svg" xmlns:xlink="http://www.w3.org/1999/xlink" version="1.1"><rect x="0" y="0" width="900" height="200" fill="#000000"></rect><path d="M0 99L7.8 106.8C15.7 114.7 31.3 130.3 47.2 131.2C63 132 79 118 94.8 105C110.7 92 126.3 80 142 76.5C157.7 73 173.3 78 189.2 86.5C205 95 221 107 236.8 110.8C252.7 114.7 268.3 110.3 284.2 104.5C300 98.7 316 91.3 331.8 93.2C347.7 95 363.3 106 379 109.7C394.7 113.3 410.3 109.7 426.2 109.8C442 110 458 114 473.8 113.7C489.7 113.3 505.3 108.7 521 112.3C536.7 116 552.3 128 568.2 128.3C584 128.7 600 117.3 615.8 109.7C631.7 102 647.3 98 663.2 102.5C679 107 695 120 710.8 128.2C726.7 136.3 742.3 139.7 758 137.2C773.7 134.7 789.3 126.3 805.2 115.8C821 105.3 837 92.7 852.8 85C868.7 77.3 884.3 74.7 892.2 73.3L900 72L900 0L892.2 0C884.3 0 868.7 0 852.8 0C837 0 821 0 805.2 0C789.3 0 773.7 0 758 0C742.3 0 726.7 0 710.8 0C695 0 679 0 663.2 0C647.3 0 631.7 0 615.8 0C600 0 584 0 568.2 0C552.3 0 536.7 0 521 0C505.3 0 489.7 0 473.8 0C458 0 442 0 426.2 0C410.3 0 394.7 0 379 0C363.3 0 347.7 0 331.8 0C316 0 300 0 284.2 0C268.3 0 252.7 0 236.8 0C221 0 205 0 189.2 0C173.3 0 157.7 0 142 0C126.3 0 110.7 0 94.8 0C79 0 63 0 47.2 0C31.3 0 15.7 0 7.8 0L0 0Z" fill="#ff0000"></path><path d="M0 130L7.8 122.8C15.7 115.7 31.3 101.3 47.2 92.7C63 84 79 81 94.8 89.7C110.7 98.3 126.3 118.7 142 128.3C157.7 138 173.3 137 189.2 136.5C205 136 221 136 236.8 124.5C252.7 113 268.3 90 284.2 87.2C300 84.3 316 101.7 331.8 107C347.7 112.3 363.3 105.7 379 106.8C394.7 108 410.3 117 426.2 122.7C442 128.3 458 130.7 473.8 128C489.7 125.3 505.3 117.7 521 117.8C536.7 118 552.3 126 568.2 126C584 126 600 118 615.8 111C631.7 104 647.3 98 663.2 96.7C679 95.3 695 98.7 710.8 102.2C726.7 105.7 742.3 109.3 758 110.7C773.7 112 789.3 111 805.2 106.8C821 102.7 837 95.3 852.8 96.2C868.7 97 884.3 106 892.2 110.5L900 115L900 0L892.2 0C884.3 0 868.7 0 852.8 0C837 0 821 0 805.2 0C789.3 0 773.7 0 758 0C742.3 0 726.7 0 710.8 0C695 0 679 0 663.2 0C647.3 0 631.7 0 615.8 0C600 0 584 0 568.2 0C552.3 0 536.7 0 521 0C505.3 0 489.7 0 473.8 0C458 0 442 0 426.2 0C410.3 0 394.7 0 379 0C363.3 0 347.7 0 331.8 0C316 0 300 0 284.2 0C268.3 0 252.7 0 236.8 0C221 0 205 0 189.2 0C173.3 0 157.7 0 142 0C126.3 0 110.7 0 94.8 0C79 0 63 0 47.2 0C31.3 0 15.7 0 7.8 0L0 0Z" fill="#ed0000"></path><path d="M0 126L7.8 113.5C15.7 101 31.3 76 47.2 64C63 52 79 53 94.8 59C110.7 65 126.3 76 142 78.5C157.7 81 173.3 75 189.2 73.7C205 72.3 221 75.7 236.8 81.2C252.7 86.7 268.3 94.3 284.2 92.7C300 91 316 80 331.8 75C347.7 70 363.3 71 379 70.2C394.7 69.3 410.3 66.7 426.2 65.8C442 65 458 66 473.8 67.7C489.7 69.3 505.3 71.7 521 73.8C536.7 76 552.3 78 568.2 84.5C584 91 600 102 615.8 108C631.7 114 647.3 115 663.2 116.2C679 117.3 695 118.7 710.8 113.8C726.7 109 742.3 98 758 93C773.7 88 789.3 89 805.2 94.8C821 100.7 837 111.3 852.8 107.8C868.7 104.3 884.3 86.7 892.2 77.8L900 69L900 0L892.2 0C884.3 0 868.7 0 852.8 0C837 0 821 0 805.2 0C789.3 0 773.7 0 758 0C742.3 0 726.7 0 710.8 0C695 0 679 0 663.2 0C647.3 0 631.7 0 615.8 0C600 0 584 0 568.2 0C552.3 0 536.7 0 521 0C505.3 0 489.7 0 473.8 0C458 0 442 0 426.2 0C410.3 0 394.7 0 379 0C363.3 0 347.7 0 331.8 0C316 0 300 0 284.2 0C268.3 0 252.7 0 236.8 0C221 0 205 0 189.2 0C173.3 0 157.7 0 142 0C126.3 0 110.7 0 94.8 0C79 0 63 0 47.2 0C31.3 0 15.7 0 7.8 0L0 0Z" fill="#db0000"></path><path d="M0 57L7.8 61.5C15.7 66 31.3 75 47.2 77C63 79 79 74 94.8 68.2C110.7 62.3 126.3 55.7 142 55.7C157.7 55.7 173.3 62.3 189.2 68.8C205 75.3 221 81.7 236.8 80.5C252.7 79.3 268.3 70.7 284.2 68.8C300 67 316 72 331.8 80.5C347.7 89 363.3 101 379 107.2C394.7 113.3 410.3 113.7 426.2 112.5C442 111.3 458 108.7 473.8 101C489.7 93.3 505.3 80.7 521 74.2C536.7 67.7 552.3 67.3 568.2 71.3C584 75.3 600 83.7 615.8 90.8C631.7 98 647.3 104 663.2 103C679 102 695 94 710.8 84.2C726.7 74.3 742.3 62.7 758 66.8C773.7 71 789.3 91 805.2 98.3C821 105.7 837 100.3 852.8 89.7C868.7 79 884.3 63 892.2 55L900 47L900 0L892.2 0C884.3 0 868.7 0 852.8 0C837 0 821 0 805.2 0C789.3 0 773.7 0 758 0C742.3 0 726.7 0 710.8 0C695 0 679 0 663.2 0C647.3 0 631.7 0 615.8 0C600 0 584 0 568.2 0C552.3 0 536.7 0 521 0C505.3 0 489.7 0 473.8 0C458 0 442 0 426.2 0C410.3 0 394.7 0 379 0C363.3 0 347.7 0 331.8 0C316 0 300 0 284.2 0C268.3 0 252.7 0 236.8 0C221 0 205 0 189.2 0C173.3 0 157.7 0 142 0C126.3 0 110.7 0 94.8 0C79 0 63 0 47.2 0C31.3 0 15.7 0 7.8 0L0 0Z" fill="#c90001"></path><path d="M0 98L7.8 89.3C15.7 80.7 31.3 63.3 47.2 55.8C63 48.3 79 50.7 94.8 54.7C110.7 58.7 126.3 64.3 142 65.3C157.7 66.3 173.3 62.7 189.2 66.3C205 70 221 81 236.8 87.7C252.7 94.3 268.3 96.7 284.2 95C300 93.3 316 87.7 331.8 82C347.7 76.3 363.3 70.7 379 71.5C394.7 72.3 410.3 79.7 426.2 79.5C442 79.3 458 71.7 473.8 73.5C489.7 75.3 505.3 86.7 521 84.8C536.7 83 552.3 68 568.2 61.8C584 55.7 600 58.3 615.8 66.3C631.7 74.3 647.3 87.7 663.2 90.5C679 93.3 695 85.7 710.8 85.7C726.7 85.7 742.3 93.3 758 88.2C773.7 83 789.3 65 805.2 64.3C821 63.7 837 80.3 852.8 84.5C868.7 88.7 884.3 80.3 892.2 76.2L900 72L900 0L892.2 0C884.3 0 868.7 0 852.8 0C837 0 821 0 805.2 0C789.3 0 773.7 0 758 0C742.3 0 726.7 0 710.8 0C695 0 679 0 663.2 0C647.3 0 631.7 0 615.8 0C600 0 584 0 568.2 0C552.3 0 536.7 0 521 0C505.3 0 489.7 0 473.8 0C458 0 442 0 426.2 0C410.3 0 394.7 0 379 0C363.3 0 347.7 0 331.8 0C316 0 300 0 284.2 0C268.3 0 252.7 0 236.8 0C221 0 205 0 189.2 0C173.3 0 157.7 0 142 0C126.3 0 110.7 0 94.8 0C79 0 63 0 47.2 0C31.3 0 15.7 0 7.8 0L0 0Z" fill="#b70001"></path><path d="M0 59L7.8 55.7C15.7 52.3 31.3 45.7 47.2 46.7C63 47.7 79 56.3 94.8 57C110.7 57.7 126.3 50.3 142 51.7C157.7 53 173.3 63 189.2 63.5C205 64 221 55 236.8 55.5C252.7 56 268.3 66 284.2 68.5C300 71 316 66 331.8 60.3C347.7 54.7 363.3 48.3 379 51.8C394.7 55.3 410.3 68.7 426.2 69.3C442 70 458 58 473.8 52C489.7 46 505.3 46 521 51.7C536.7 57.3 552.3 68.7 568.2 70C584 71.3 600 62.7 615.8 63.3C631.7 64 647.3 74 663.2 77C679 80 695 76 710.8 72.3C726.7 68.7 742.3 65.3 758 62.8C773.7 60.3 789.3 58.7 805.2 54.5C821 50.3 837 43.7 852.8 46.8C868.7 50 884.3 63 892.2 69.5L900 76L900 0L892.2 0C884.3 0 868.7 0 852.8 0C837 0 821 0 805.2 0C789.3 0 773.7 0 758 0C742.3 0 726.7 0 710.8 0C695 0 679 0 663.2 0C647.3 0 631.7 0 615.8 0C600 0 584 0 568.2 0C552.3 0 536.7 0 521 0C505.3 0 489.7 0 473.8 0C458 0 442 0 426.2 0C410.3 0 394.7 0 379 0C363.3 0 347.7 0 331.8 0C316 0 300 0 284.2 0C268.3 0 252.7 0 236.8 0C221 0 205 0 189.2 0C173.3 0 157.7 0 142 0C126.3 0 110.7 0 94.8 0C79 0 63 0 47.2 0C31.3 0 15.7 0 7.8 0L0 0Z" fill="#a60000"></path><path d="M0 41L7.8 42.2C15.7 43.3 31.3 45.7 47.2 47.2C63 48.7 79 49.3 94.8 48.5C110.7 47.7 126.3 45.3 142 44.7C157.7 44 173.3 45 189.2 49.3C205 53.7 221 61.3 236.8 60C252.7 58.7 268.3 48.3 284.2 41.8C300 35.3 316 32.7 331.8 36.5C347.7 40.3 363.3 50.7 379 50.5C394.7 50.3 410.3 39.7 426.2 40.7C442 41.7 458 54.3 473.8 61.8C489.7 69.3 505.3 71.7 521 68.5C536.7 65.3 552.3 56.7 568.2 56.8C584 57 600 66 615.8 64.2C631.7 62.3 647.3 49.7 663.2 46.7C679 43.7 695 50.3 710.8 50.2C726.7 50 742.3 43 758 40.7C773.7 38.3 789.3 40.7 805.2 40.5C821 40.3 837 37.7 852.8 39C868.7 40.3 884.3 45.7 892.2 48.3L900 51L900 0L892.2 0C884.3 0 868.7 0 852.8 0C837 0 821 0 805.2 0C789.3 0 773.7 0 758 0C742.3 0 726.7 0 710.8 0C695 0 679 0 663.2 0C647.3 0 631.7 0 615.8 0C600 0 584 0 568.2 0C552.3 0 536.7 0 521 0C505.3 0 489.7 0 473.8 0C458 0 442 0 426.2 0C410.3 0 394.7 0 379 0C363.3 0 347.7 0 331.8 0C316 0 300 0 284.2 0C268.3 0 252.7 0 236.8 0C221 0 205 0 189.2 0C173.3 0 157.7 0 142 0C126.3 0 110.7 0 94.8 0C79 0 63 0 47.2 0C31.3 0 15.7 0 7.8 0L0 0Z" fill="#910000"></path><path d="M0 55L7.8 55.8C15.7 56.7 31.3 58.3 47.2 56.3C63 54.3 79 48.7 94.8 44.5C110.7 40.3 126.3 37.7 142 34.5C157.7 31.3 173.3 27.7 189.2 30.5C205 33.3 221 42.7 236.8 45C252.7 47.3 268.3 42.7 284.2 39.8C300 37 316 36 331.8 36.2C347.7 36.3 363.3 37.7 379 36.7C394.7 35.7 410.3 32.3 426.2 34.8C442 37.3 458 45.7 473.8 50.3C489.7 55 505.3 56 521 57C536.7 58 552.3 59 568.2 59.3C584 59.7 600 59.3 615.8 59.8C631.7 60.3 647.3 61.7 663.2 61.3C679 61 695 59 710.8 54.2C726.7 49.3 742.3 41.7 758 40.7C773.7 39.7 789.3 45.3 805.2 46.2C821 47 837 43 852.8 41.5C868.7 40 884.3 41 892.2 41.5L900 42L900 0L892.2 0C884.3 0 868.7 0 852.8 0C837 0 821 0 805.2 0C789.3 0 773.7 0 758 0C742.3 0 726.7 0 710.8 0C695 0 679 0 663.2 0C647.3 0 631.7 0 615.8 0C600 0 584 0 568.2 0C552.3 0 536.7 0 521 0C505.3 0 489.7 0 473.8 0C458 0 442 0 426.2 0C410.3 0 394.7 0 379 0C363.3 0 347.7 0 331.8 0C316 0 300 0 284.2 0C268.3 0 252.7 0 236.8 0C221 0 205 0 189.2 0C173.3 0 157.7 0 142 0C126.3 0 110.7 0 94.8 0C79 0 63 0 47.2 0C31.3 0 15.7 0 7.8 0L0 0Z" fill="#7c0000"></path><path d="M0 20L7.8 22C15.7 24 31.3 28 47.2 30.2C63 32.3 79 32.7 94.8 30.3C110.7 28 126.3 23 142 23.3C157.7 23.7 173.3 29.3 189.2 30.3C205 31.3 221 27.7 236.8 25.5C252.7 23.3 268.3 22.7 284.2 23.7C300 24.7 316 27.3 331.8 27.8C347.7 28.3 363.3 26.7 379 24.8C394.7 23 410.3 21 426.2 21.8C442 22.7 458 26.3 473.8 31C489.7 35.7 505.3 41.3 521 40.7C536.7 40 552.3 33 568.2 31C584 29 600 32 615.8 33.7C631.7 35.3 647.3 35.7 663.2 37.5C679 39.3 695 42.7 710.8 41.8C726.7 41 742.3 36 758 32.7C773.7 29.3 789.3 27.7 805.2 30.2C821 32.7 837 39.3 852.8 39.7C868.7 40 884.3 34 892.2 31L900 28L900 0L892.2 0C884.3 0 868.7 0 852.8 0C837 0 821 0 805.2 0C789.3 0 773.7 0 758 0C742.3 0 726.7 0 710.8 0C695 0 679 0 663.2 0C647.3 0 631.7 0 615.8 0C600 0 584 0 568.2 0C552.3 0 536.7 0 521 0C505.3 0 489.7 0 473.8 0C458 0 442 0 426.2 0C410.3 0 394.7 0 379 0C363.3 0 347.7 0 331.8 0C316 0 300 0 284.2 0C268.3 0 252.7 0 236.8 0C221 0 205 0 189.2 0C173.3 0 157.7 0 142 0C126.3 0 110.7 0 94.8 0C79 0 63 0 47.2 0C31.3 0 15.7 0 7.8 0L0 0Z" fill="#690000"></path><path d="M0 14L7.8 17.5C15.7 21 31.3 28 47.2 30.8C63 33.7 79 32.3 94.8 29.7C110.7 27 126.3 23 142 23.2C157.7 23.3 173.3 27.7 189.2 29.8C205 32 221 32 236.8 31.5C252.7 31 268.3 30 284.2 28.7C300 27.3 316 25.7 331.8 26.7C347.7 27.7 363.3 31.3 379 31.7C394.7 32 410.3 29 426.2 27.7C442 26.3 458 26.7 473.8 27.7C489.7 28.7 505.3 30.3 521 29.3C536.7 28.3 552.3 24.7 568.2 25C584 25.3 600 29.7 615.8 29.3C631.7 29 647.3 24 663.2 23.5C679 23 695 27 710.8 29.5C726.7 32 742.3 33 758 32C773.7 31 789.3 28 805.2 25.3C821 22.7 837 20.3 852.8 20.3C868.7 20.3 884.3 22.7 892.2 23.8L900 25L900 0L892.2 0C884.3 0 868.7 0 852.8 0C837 0 821 0 805.2 0C789.3 0 773.7 0 758 0C742.3 0 726.7 0 710.8 0C695 0 679 0 663.2 0C647.3 0 631.7 0 615.8 0C600 0 584 0 568.2 0C552.3 0 536.7 0 521 0C505.3 0 489.7 0 473.8 0C458 0 442 0 426.2 0C410.3 0 394.7 0 379 0C363.3 0 347.7 0 331.8 0C316 0 300 0 284.2 0C268.3 0 252.7 0 236.8 0C221 0 205 0 189.2 0C173.3 0 157.7 0 142 0C126.3 0 110.7 0 94.8 0C79 0 63 0 47.2 0C31.3 0 15.7 0 7.8 0L0 0Z" fill="#570000"></path><path d="M0 18L7.8 18.3C15.7 18.7 31.3 19.3 47.2 20.3C63 21.3 79 22.7 94.8 21.3C110.7 20 126.3 16 142 14.3C157.7 12.7 173.3 13.3 189.2 13.2C205 13 221 12 236.8 11.7C252.7 11.3 268.3 11.7 284.2 11.5C300 11.3 316 10.7 331.8 12.3C347.7 14 363.3 18 379 18.3C394.7 18.7 410.3 15.3 426.2 14.2C442 13 458 14 473.8 14C489.7 14 505.3 13 521 13.8C536.7 14.7 552.3 17.3 568.2 16.8C584 16.3 600 12.7 615.8 11.3C631.7 10 647.3 11 663.2 12.8C679 14.7 695 17.3 710.8 18C726.7 18.7 742.3 17.3 758 16.3C773.7 15.3 789.3 14.7 805.2 16C821 17.3 837 20.7 852.8 19.8C868.7 19 884.3 14 892.2 11.5L900 9L900 0L892.2 0C884.3 0 868.7 0 852.8 0C837 0 821 0 805.2 0C789.3 0 773.7 0 758 0C742.3 0 726.7 0 710.8 0C695 0 679 0 663.2 0C647.3 0 631.7 0 615.8 0C600 0 584 0 568.2 0C552.3 0 536.7 0 521 0C505.3 0 489.7 0 473.8 0C458 0 442 0 426.2 0C410.3 0 394.7 0 379 0C363.3 0 347.7 0 331.8 0C316 0 300 0 284.2 0C268.3 0 252.7 0 236.8 0C221 0 205 0 189.2 0C173.3 0 157.7 0 142 0C126.3 0 110.7 0 94.8 0C79 0 63 0 47.2 0C31.3 0 15.7 0 7.8 0L0 0Z" fill="#000000"></path></svg>